<svg id="Layer_1" enable-background="new 0 0 68 68" viewBox="0 0 68 68" xmlns="http://www.w3.org/2000/svg"><g><path d="m66 34.0005722c0 17.671917-14.328083 31.9993134-32 31.9993134s-32-14.3273964-32-31.9993134 14.3280811-32.0006876 32-32.0006876 32 14.3287668 32 32.0006876z" fill="#fff" style="fill: rgb(23, 33, 43);"></path><path d="m66 34.0005722c0 17.671917-14.328083 31.9993134-32 31.9993134s-32-14.3273964-32-31.9993134 14.3280811-32.0006876 32-32.0006876 32 14.3287668 32 32.0006876z" fill="#ffd80c" style="fill: rgb(83, 135, 193);"></path><path d="m56.6285095 56.6251144c-12.5 12.5-32.7599487 12.5-45.2599487 0l45.2599487-45.25c12.4900513 12.4899922 12.4900513 32.7597657 0 45.25z" fill="#ffa300" style="fill: rgb(83, 135, 193);"></path><g><g><path d="m51.0563507 35.1247482c0 10.3312721-9.224823 18.5542908-19.8705311 16.8421516-7.1282272-1.1530838-12.8588181-6.8487015-14.0119038-13.965271-.9900036-6.0682697 1.2113075-11.9036484 5.5907574-15.7123833 1.0133209-.8852177 2.5974274-.6639843 3.3195629.4891014l.0931282.1515636c.5823727.908535.3610687 2.0266438-.4192905 2.7021446-3.4126911 2.9351768-5.0433617 7.5475178-4.0416279 12.2647877 1.0365677 4.8686943 5.031702 8.7006035 9.9235706 9.5974808 7.9668789 1.4559288 14.9320278-4.6589775 14.9320278-12.3695755 0-3.6806316-1.5840378-7.1167126-4.3328133-9.4810352-.8036766-.7104759-.9317818-1.9218559-.349411-2.830389l.0232468-.034977c.7337952-1.1414261 2.3062401-1.3626595 3.3311501-.4657841 3.6806336 3.2147047 5.8121338 7.8387052 5.8121338 12.8121854z" fill="#fff" style="fill: rgb(23, 33, 43);"></path></g><g><path d="m34.0006447 35.077137h-.0000038c-1.2378922 0-2.2414017-1.0035095-2.2414017-2.2414017v-16.2672539c0-1.2378931 1.0035095-2.2414036 2.2414017-2.2414036h.0000038c1.237896 0 2.2414055 1.0035105 2.2414055 2.2414036v16.2672539c0 1.2378922-1.0035096 2.2414017-2.2414055 2.2414017z" fill="#fff" style="fill: rgb(23, 33, 43);"></path></g></g></g></svg>